
        <svg xmlns="http://www.w3.org/2000/svg" width="880" height="330" viewBox="0 0 880 330">
            <defs><linearGradient id="grad_s1_0" x1="0%" y1="0%" x2="100%" y2="0%"><stop offset="0%" style="stop-color:#F3E5F5;stop-opacity:1" /><stop offset="100%" style="stop-color:#F6BBFF;stop-opacity:1" /></linearGradient><linearGradient id="grad_s1_1" x1="0%" y1="0%" x2="100%" y2="0%"><stop offset="0%" style="stop-color:#E3F2FD;stop-opacity:1" /><stop offset="100%" style="stop-color:#B8F2FF;stop-opacity:1" /></linearGradient><linearGradient id="grad_s1_2" x1="0%" y1="0%" x2="100%" y2="0%"><stop offset="0%" style="stop-color:#E0F2F1;stop-opacity:1" /><stop offset="100%" style="stop-color:#A8F3EC;stop-opacity:1" /></linearGradient><linearGradient id="grad_s2_0" x1="0%" y1="0%" x2="100%" y2="0%"><stop offset="0%" style="stop-color:#F6BBFF;stop-opacity:1" /><stop offset="100%" style="stop-color:#C44FD8;stop-opacity:1" /></linearGradient><linearGradient id="grad_s2_1" x1="0%" y1="0%" x2="100%" y2="0%"><stop offset="0%" style="stop-color:#B8F2FF;stop-opacity:1" /><stop offset="100%" style="stop-color:#49BEFF;stop-opacity:1" /></linearGradient><linearGradient id="grad_s2_2" x1="0%" y1="0%" x2="100%" y2="0%"><stop offset="0%" style="stop-color:#A8F3EC;stop-opacity:1" /><stop offset="100%" style="stop-color:#28BEB0;stop-opacity:1" /></linearGradient><linearGradient id="grad_final_0" x1="0%" y1="0%" x2="100%" y2="0%"><stop offset="0%" style="stop-color:#C44FD8;stop-opacity:1" /><stop offset="100%" style="stop-color:#4A148C;stop-opacity:1" /></linearGradient><linearGradient id="grad_final_1" x1="0%" y1="0%" x2="100%" y2="0%"><stop offset="0%" style="stop-color:#C44FD8;stop-opacity:1" /><stop offset="100%" style="stop-color:#4A148C;stop-opacity:1" /></linearGradient><linearGradient id="grad_final_2" x1="0%" y1="0%" x2="100%" y2="0%"><stop offset="0%" style="stop-color:#C44FD8;stop-opacity:1" /><stop offset="100%" style="stop-color:#4A148C;stop-opacity:1" /></linearGradient><linearGradient id="grad_final_3" x1="0%" y1="0%" x2="100%" y2="0%"><stop offset="0%" style="stop-color:#49BEFF;stop-opacity:1" /><stop offset="100%" style="stop-color:#0D47A1;stop-opacity:1" /></linearGradient><linearGradient id="grad_final_4" x1="0%" y1="0%" x2="100%" y2="0%"><stop offset="0%" style="stop-color:#49BEFF;stop-opacity:1" /><stop offset="100%" style="stop-color:#0D47A1;stop-opacity:1" /></linearGradient><linearGradient id="grad_final_5" x1="0%" y1="0%" x2="100%" y2="0%"><stop offset="0%" style="stop-color:#28BEB0;stop-opacity:1" /><stop offset="100%" style="stop-color:#004D40;stop-opacity:1" /></linearGradient><linearGradient id="grad_final_6" x1="0%" y1="0%" x2="100%" y2="0%"><stop offset="0%" style="stop-color:#28BEB0;stop-opacity:1" /><stop offset="100%" style="stop-color:#004D40;stop-opacity:1" /></linearGradient><linearGradient id="grad_final_7" x1="0%" y1="0%" x2="100%" y2="0%"><stop offset="0%" style="stop-color:#28BEB0;stop-opacity:1" /><stop offset="100%" style="stop-color:#004D40;stop-opacity:1" /></linearGradient><linearGradient id="grad_final_8" x1="0%" y1="0%" x2="100%" y2="0%"><stop offset="0%" style="stop-color:#28BEB0;stop-opacity:1" /><stop offset="100%" style="stop-color:#004D40;stop-opacity:1" /></linearGradient></defs>
            <rect width="100%" height="100%" fill="white"/>
            <rect x="40" y="70.0" width="80.5" height="60" rx="0" fill="#F3E5F5" opacity="1.0" stroke="none" /><text x="80.0" y="95.4" font-family="Arial, Calibri" font-size="16" fill="#333" text-anchor="middle" >Source A</text><text x="80.0" y="114.60000000000001" font-family="Arial, Calibri" font-size="16" fill="#333" text-anchor="middle" >Questions</text><rect x="40" y="135.0" width="80.5" height="90" rx="0" fill="#E3F2FD" opacity="1.0" stroke="none" /><text x="80.0" y="175.4" font-family="Arial, Calibri" font-size="16" fill="#333" text-anchor="middle" >Source B</text><text x="80.0" y="194.6" font-family="Arial, Calibri" font-size="16" fill="#333" text-anchor="middle" >Questions</text><rect x="40" y="230.0" width="80.5" height="40" rx="0" fill="#E0F2F1" opacity="1.0" stroke="none" /><text x="80.0" y="245.4" font-family="Arial, Calibri" font-size="16" fill="#333" text-anchor="middle" >Source C</text><text x="80.0" y="264.6" font-family="Arial, Calibri" font-size="16" fill="#333" text-anchor="middle" >Questions</text><path d="M 119.5 70.0 C 205.0 70.0, 205.0 67.0, 290.5 67.0 L 290.5 127.0 C 205.0 127.0, 205.0 130.0, 119.5 130.0 Z" fill="url(#grad_s1_0)" opacity="1.0" /><path d="M 119.5 135.0 C 205.0 135.0, 205.0 135.0, 290.5 135.0 L 290.5 225.0 C 205.0 225.0, 205.0 225.0, 119.5 225.0 Z" fill="url(#grad_s1_1)" opacity="1.0" /><path d="M 119.5 230.0 C 205.0 230.0, 205.0 233.0, 290.5 233.0 L 290.5 273.0 C 205.0 273.0, 205.0 270.0, 119.5 270.0 Z" fill="url(#grad_s1_2)" opacity="1.0" /><rect x="290" y="67.0" width="10.5" height="60" rx="0" fill="#F6BBFF" opacity="1.0" stroke="none" /><rect x="290" y="135.0" width="10.5" height="90" rx="0" fill="#B8F2FF" opacity="1.0" stroke="none" /><rect x="290" y="233.0" width="10.5" height="40" rx="0" fill="#A8F3EC" opacity="1.0" stroke="none" /><path d="M 299.5 103.0 C 375.0 103.0, 375.0 250, 450.5 250 L 450.5 274.0 C 375.0 274.0, 375.0 127.0, 299.5 127.0 Z" fill="#E0E0E0" opacity="0.6" /><rect x="300" y="67.0" width="10.5" height="36.0" rx="0" fill="#F6BBFF" opacity="1.0" stroke="none" /><path d="M 299.5 189.0 C 375.0 189.0, 375.0 274.0, 450.5 274.0 L 450.5 310.0 C 375.0 310.0, 375.0 225.0, 299.5 225.0 Z" fill="#E0E0E0" opacity="0.6" /><rect x="300" y="135.0" width="10.5" height="54.0" rx="0" fill="#B8F2FF" opacity="1.0" stroke="none" /><path d="M 299.5 257.0 C 375.0 257.0, 375.0 310.0, 450.5 310.0 L 450.5 326.0 C 375.0 326.0, 375.0 273.0, 299.5 273.0 Z" fill="#E0E0E0" opacity="0.6" /><rect x="300" y="233.0" width="10.5" height="24.0" rx="0" fill="#A8F3EC" opacity="1.0" stroke="none" /><text x="460" y="287.6" font-family="Arial, Calibri" font-size="14" fill="#999" text-anchor="start" >Early</text><text x="460" y="304.40000000000003" font-family="Arial, Calibri" font-size="14" fill="#999" text-anchor="start" >Termination</text><path d="M 309.5 67.0 C 400.0 67.0, 400.0 105.0, 490.5 105.0 L 490.5 141.0 C 400.0 141.0, 400.0 103.0, 309.5 103.0 Z" fill="url(#grad_s2_0)" opacity="1.0" /><path d="M 309.5 135.0 C 400.0 135.0, 400.0 149.0, 490.5 149.0 L 490.5 203.0 C 400.0 203.0, 400.0 189.0, 309.5 189.0 Z" fill="url(#grad_s2_1)" opacity="1.0" /><path d="M 309.5 233.0 C 400.0 233.0, 400.0 211.0, 490.5 211.0 L 490.5 235.0 C 400.0 235.0, 400.0 257.0, 309.5 257.0 Z" fill="url(#grad_s2_2)" opacity="1.0" /><rect x="490" y="105.0" width="10.5" height="36.0" rx="0" fill="#C44FD8" opacity="1.0" stroke="none" /><rect x="500" y="105.0" width="10.5" height="36.0" rx="0" fill="#C44FD8" opacity="1.0" stroke="none" /><rect x="490" y="149.0" width="10.5" height="54.0" rx="0" fill="#49BEFF" opacity="1.0" stroke="none" /><rect x="500" y="149.0" width="10.5" height="54.0" rx="0" fill="#49BEFF" opacity="1.0" stroke="none" /><rect x="490" y="211.0" width="10.5" height="24.0" rx="0" fill="#28BEB0" opacity="1.0" stroke="none" /><rect x="500" y="211.0" width="10.5" height="24.0" rx="0" fill="#28BEB0" opacity="1.0" stroke="none" /><path d="M 509.5 105.0 C 555.0 105.0, 555.0 93.0, 600.5 93.0 L 600.5 105.0 C 555.0 105.0, 555.0 117.0, 509.5 117.0 Z" fill="#C44FD8" opacity="1.0" /><path d="M 509.5 117.0 C 555.0 117.0, 555.0 110.0, 600.5 110.0 L 600.5 122.0 C 555.0 122.0, 555.0 129.0, 509.5 129.0 Z" fill="#C44FD8" opacity="1.0" /><path d="M 509.5 129.0 C 555.0 129.0, 555.0 127.0, 600.5 127.0 L 600.5 139.0 C 555.0 139.0, 555.0 141.0, 509.5 141.0 Z" fill="#C44FD8" opacity="1.0" /><path d="M 509.5 149.0 C 555.0 149.0, 555.0 144.0, 600.5 144.0 L 600.5 171.0 C 555.0 171.0, 555.0 176.0, 509.5 176.0 Z" fill="#49BEFF" opacity="1.0" /><path d="M 509.5 176.0 C 555.0 176.0, 555.0 176.0, 600.5 176.0 L 600.5 203.0 C 555.0 203.0, 555.0 203.0, 509.5 203.0 Z" fill="#49BEFF" opacity="1.0" /><path d="M 509.5 211.0 C 555.0 211.0, 555.0 208.0, 600.5 208.0 L 600.5 214.0 C 555.0 214.0, 555.0 217.0, 509.5 217.0 Z" fill="#28BEB0" opacity="1.0" /><path d="M 509.5 217.0 C 555.0 217.0, 555.0 219.0, 600.5 219.0 L 600.5 225.0 C 555.0 225.0, 555.0 223.0, 509.5 223.0 Z" fill="#28BEB0" opacity="1.0" /><path d="M 509.5 223.0 C 555.0 223.0, 555.0 230.0, 600.5 230.0 L 600.5 236.0 C 555.0 236.0, 555.0 229.0, 509.5 229.0 Z" fill="#28BEB0" opacity="1.0" /><path d="M 509.5 229.0 C 555.0 229.0, 555.0 241.0, 600.5 241.0 L 600.5 247.0 C 555.0 247.0, 555.0 235.0, 509.5 235.0 Z" fill="#28BEB0" opacity="1.0" /><path d="M 599.5 98.0 C 675.0 98.0, 675.0 250, 750.5 250 L 750.5 257.0 C 675.0 257.0, 675.0 105.0, 599.5 105.0 Z" fill="#E0E0E0" opacity="0.7" /><rect x="600" y="93.0" width="10.5" height="5" rx="0" fill="#C44FD8" opacity="1.0" stroke="none" /><path d="M 599.5 115.0 C 675.0 115.0, 675.0 257.0, 750.5 257.0 L 750.5 264.0 C 675.0 264.0, 675.0 122.0, 599.5 122.0 Z" fill="#E0E0E0" opacity="0.7" /><rect x="600" y="110.0" width="10.5" height="5" rx="0" fill="#C44FD8" opacity="1.0" stroke="none" /><path d="M 599.5 132.0 C 675.0 132.0, 675.0 264.0, 750.5 264.0 L 750.5 271.0 C 675.0 271.0, 675.0 139.0, 599.5 139.0 Z" fill="#E0E0E0" opacity="0.7" /><rect x="600" y="127.0" width="10.5" height="5" rx="0" fill="#C44FD8" opacity="1.0" stroke="none" /><path d="M 599.5 149.0 C 675.0 149.0, 675.0 271.0, 750.5 271.0 L 750.5 293.0 C 675.0 293.0, 675.0 171.0, 599.5 171.0 Z" fill="#E0E0E0" opacity="0.7" /><rect x="600" y="144.0" width="10.5" height="5" rx="0" fill="#49BEFF" opacity="1.0" stroke="none" /><path d="M 599.5 181.0 C 675.0 181.0, 675.0 293.0, 750.5 293.0 L 750.5 315.0 C 675.0 315.0, 675.0 203.0, 599.5 203.0 Z" fill="#E0E0E0" opacity="0.7" /><rect x="600" y="176.0" width="10.5" height="5" rx="0" fill="#49BEFF" opacity="1.0" stroke="none" /><path d="M 599.5 212.8 C 675.0 212.8, 675.0 315.0, 750.5 315.0 L 750.5 316.2 C 675.0 316.2, 675.0 214.0, 599.5 214.0 Z" fill="#E0E0E0" opacity="0.7" /><rect x="600" y="208.0" width="10.5" height="4.800000000000001" rx="0" fill="#28BEB0" opacity="1.0" stroke="none" /><path d="M 599.5 223.8 C 675.0 223.8, 675.0 316.2, 750.5 316.2 L 750.5 317.4 C 675.0 317.4, 675.0 225.0, 599.5 225.0 Z" fill="#E0E0E0" opacity="0.7" /><rect x="600" y="219.0" width="10.5" height="4.800000000000001" rx="0" fill="#28BEB0" opacity="1.0" stroke="none" /><path d="M 599.5 234.8 C 675.0 234.8, 675.0 317.4, 750.5 317.4 L 750.5 318.59999999999997 C 675.0 318.59999999999997, 675.0 236.0, 599.5 236.0 Z" fill="#E0E0E0" opacity="0.7" /><rect x="600" y="230.0" width="10.5" height="4.800000000000001" rx="0" fill="#28BEB0" opacity="1.0" stroke="none" /><path d="M 599.5 245.8 C 675.0 245.8, 675.0 318.59999999999997, 750.5 318.59999999999997 L 750.5 319.79999999999995 C 675.0 319.79999999999995, 675.0 247.0, 599.5 247.0 Z" fill="#E0E0E0" opacity="0.7" /><rect x="600" y="241.0" width="10.5" height="4.800000000000001" rx="0" fill="#28BEB0" opacity="1.0" stroke="none" /><text x="760" y="281.4" font-family="Arial, Calibri" font-size="14" fill="#999" text-anchor="start" >Early</text><text x="760" y="298.2" font-family="Arial, Calibri" font-size="14" fill="#999" text-anchor="start" >Termination</text><path d="M 609.5 93.0 C 690.0 93.0, 690.0 150, 770.5 150 L 770.5 155 C 690.0 155, 690.0 98.0, 609.5 98.0 Z" fill="url(#grad_final_0)" opacity="1.0" /><rect x="770" y="150" width="30.5" height="5" rx="0" fill="#4A148C" opacity="1.0" stroke="none" /><path d="M 609.5 110.0 C 690.0 110.0, 690.0 155, 770.5 155 L 770.5 160 C 690.0 160, 690.0 115.0, 609.5 115.0 Z" fill="url(#grad_final_1)" opacity="1.0" /><rect x="770" y="155" width="30.5" height="5" rx="0" fill="#4A148C" opacity="1.0" stroke="none" /><path d="M 609.5 127.0 C 690.0 127.0, 690.0 160, 770.5 160 L 770.5 165 C 690.0 165, 690.0 132.0, 609.5 132.0 Z" fill="url(#grad_final_2)" opacity="1.0" /><rect x="770" y="160" width="30.5" height="5" rx="0" fill="#4A148C" opacity="1.0" stroke="none" /><path d="M 609.5 144.0 C 690.0 144.0, 690.0 165, 770.5 165 L 770.5 170 C 690.0 170, 690.0 149.0, 609.5 149.0 Z" fill="url(#grad_final_3)" opacity="1.0" /><rect x="770" y="165" width="30.5" height="5" rx="0" fill="#0D47A1" opacity="1.0" stroke="none" /><path d="M 609.5 176.0 C 690.0 176.0, 690.0 170, 770.5 170 L 770.5 175 C 690.0 175, 690.0 181.0, 609.5 181.0 Z" fill="url(#grad_final_4)" opacity="1.0" /><rect x="770" y="170" width="30.5" height="5" rx="0" fill="#0D47A1" opacity="1.0" stroke="none" /><path d="M 609.5 208.0 C 690.0 208.0, 690.0 175, 770.5 175 L 770.5 179.8 C 690.0 179.8, 690.0 212.8, 609.5 212.8 Z" fill="url(#grad_final_5)" opacity="1.0" /><rect x="770" y="175" width="30.5" height="4.800000000000001" rx="0" fill="#004D40" opacity="1.0" stroke="none" /><path d="M 609.5 219.0 C 690.0 219.0, 690.0 179.8, 770.5 179.8 L 770.5 184.60000000000002 C 690.0 184.60000000000002, 690.0 223.8, 609.5 223.8 Z" fill="url(#grad_final_6)" opacity="1.0" /><rect x="770" y="179.8" width="30.5" height="4.800000000000001" rx="0" fill="#004D40" opacity="1.0" stroke="none" /><path d="M 609.5 230.0 C 690.0 230.0, 690.0 184.60000000000002, 770.5 184.60000000000002 L 770.5 189.40000000000003 C 690.0 189.40000000000003, 690.0 234.8, 609.5 234.8 Z" fill="url(#grad_final_7)" opacity="1.0" /><rect x="770" y="184.60000000000002" width="30.5" height="4.800000000000001" rx="0" fill="#004D40" opacity="1.0" stroke="none" /><path d="M 609.5 241.0 C 690.0 241.0, 690.0 189.40000000000003, 770.5 189.40000000000003 L 770.5 194.20000000000005 C 690.0 194.20000000000005, 690.0 245.8, 609.5 245.8 Z" fill="url(#grad_final_8)" opacity="1.0" /><rect x="770" y="189.40000000000003" width="30.5" height="4.800000000000001" rx="0" fill="#004D40" opacity="1.0" stroke="none" /><text x="810" y="165.4" font-family="Arial, Calibri" font-size="16" fill="#000" text-anchor="start" >Selected</text><text x="810" y="184.6" font-family="Arial, Calibri" font-size="16" fill="#000" text-anchor="start" >SFT Data</text><text x="205.0" y="150.8" font-family="Arial, Calibri" font-size="16" fill="white" stroke="white" stroke-width="3" text-anchor="middle" stroke-linejoin="round" transform="rotate(90, 205.0, 170)">Process</text><text x="205.0" y="150.8" font-family="Arial, Calibri" font-size="16" fill="#000" text-anchor="middle" transform="rotate(90, 205.0, 170)">Process</text><text x="205.0" y="170.0" font-family="Arial, Calibri" font-size="16" fill="white" stroke="white" stroke-width="3" text-anchor="middle" stroke-linejoin="round" transform="rotate(90, 205.0, 170)">Problem Understanding Phase</text><text x="205.0" y="170.0" font-family="Arial, Calibri" font-size="16" fill="#000" text-anchor="middle" transform="rotate(90, 205.0, 170)">Problem Understanding Phase</text><text x="205.0" y="189.20000000000002" font-family="Arial, Calibri" font-size="16" fill="white" stroke="white" stroke-width="3" text-anchor="middle" stroke-linejoin="round" transform="rotate(90, 205.0, 170)">(100 Tokens)</text><text x="205.0" y="189.20000000000002" font-family="Arial, Calibri" font-size="16" fill="#000" text-anchor="middle" transform="rotate(90, 205.0, 170)">(100 Tokens)</text><text x="300" y="17.0" font-family="Arial, Calibri" font-size="16" fill="#000" text-anchor="middle" >Difficulty Filtering</text><text x="300" y="34.8" font-family="Arial, Calibri" font-size="12" fill="#000" text-anchor="middle" >(Loss from randomly</text><text x="300" y="49.199999999999996" font-family="Arial, Calibri" font-size="12" fill="#000" text-anchor="middle" >perturbed checkpoint)</text><text x="400.0" y="150.8" font-family="Arial, Calibri" font-size="16" fill="white" stroke="white" stroke-width="3" text-anchor="middle" stroke-linejoin="round" transform="rotate(90, 400.0, 170)">Process</text><text x="400.0" y="150.8" font-family="Arial, Calibri" font-size="16" fill="#000" text-anchor="middle" transform="rotate(90, 400.0, 170)">Process</text><text x="400.0" y="170.0" font-family="Arial, Calibri" font-size="16" fill="white" stroke="white" stroke-width="3" text-anchor="middle" stroke-linejoin="round" transform="rotate(90, 400.0, 170)">Initial Reasoning Steps</text><text x="400.0" y="170.0" font-family="Arial, Calibri" font-size="16" fill="#000" text-anchor="middle" transform="rotate(90, 400.0, 170)">Initial Reasoning Steps</text><text x="400.0" y="189.20000000000002" font-family="Arial, Calibri" font-size="16" fill="white" stroke="white" stroke-width="3" text-anchor="middle" stroke-linejoin="round" transform="rotate(90, 400.0, 170)">(1k Tokens)</text><text x="400.0" y="189.20000000000002" font-family="Arial, Calibri" font-size="16" fill="#000" text-anchor="middle" transform="rotate(90, 400.0, 170)">(1k Tokens)</text><text x="600" y="43.0" font-family="Arial, Calibri" font-size="16" fill="#000" text-anchor="middle" >Diversity Sampling</text><text x="600" y="60.8" font-family="Arial, Calibri" font-size="12" fill="#000" text-anchor="middle" >(Loss from directionally</text><text x="600" y="75.19999999999999" font-family="Arial, Calibri" font-size="12" fill="#000" text-anchor="middle" >perturbed checkpoints)</text><line x1="300" y1="57.0" x2="300" y2="283.0" stroke="#000" stroke-width="2" stroke-dasharray="6,4" /><line x1="600" y1="83.0" x2="600" y2="257.0" stroke="#000" stroke-width="2" stroke-dasharray="6,4" /><text x="675.0" y="160.4" font-family="Arial, Calibri" font-size="16" fill="white" stroke="white" stroke-width="3" text-anchor="middle" stroke-linejoin="round" transform="rotate(90, 675.0, 170)">Select</text><text x="675.0" y="160.4" font-family="Arial, Calibri" font-size="16" fill="#000" text-anchor="middle" transform="rotate(90, 675.0, 170)">Select</text><text x="675.0" y="179.6" font-family="Arial, Calibri" font-size="16" fill="white" stroke="white" stroke-width="3" text-anchor="middle" stroke-linejoin="round" transform="rotate(90, 675.0, 170)">Full Response</text><text x="675.0" y="179.6" font-family="Arial, Calibri" font-size="16" fill="#000" text-anchor="middle" transform="rotate(90, 675.0, 170)">Full Response</text>
        </svg>
        